{
  "accessors": [
    {
      "bufferView": 2,
      "componentType": 5126,
      "count": 6769,
      "max": [
        5.966109752655029,
        8.027183532714844,
        42.46052551269531
      ],
      "min": [
        -5.966109752655029,
        -7.684116363525391,
        -35.80632781982422
      ],
      "type": "VEC3"
    },
    {
      "bufferView": 2,
      "byteOffset": 81228,
      "componentType": 5126,
      "count": 6769,
      "max": [
        1.0,
        1.0,
        1.0
      ],
      "min": [
        -1.0,
        -1.0,
        -1.0
      ],
      "type": "VEC3"
    },
    {
      "bufferView": 1,
      "componentType": 5126,
      "count": 6769,
      "max": [
        1.0,
        1.0000001192092896
      ],
      "min": [
        0.0,
        0.0
      ],
      "type": "VEC2"
    },
    {
      "bufferView": 0,
      "componentType": 5125,
      "count": 10407,
      "type": "SCALAR"
    },
    {
      "bufferView": 2,
      "byteOffset": 162456,
      "componentType": 5126,
      "count": 783,
      "max": [
        0.0,
        7.01519250869751,
        42.414676666259766
      ],
      "min": [
        -5.966109752655029,
        -6.750515460968018,
        -35.80632781982422
      ],
      "type": "VEC3"
    },
    {
      "bufferView": 2,
      "byteOffset": 171852,
      "componentType": 5126,
      "count": 783,
      "max": [
        0.14931175112724304,
        0.9670240879058838,
        0.9569404125213623
      ],
      "min": [
        -0.9998559355735779,
        -0.9991143941879272,
        -0.9998577237129211
      ],
      "type": "VEC3"
    },
    {
      "bufferView": 1,
      "byteOffset": 54152,
      "componentType": 5126,
      "count": 783,
      "max": [
        0.6576291918754578,
        0.6111390590667725
      ],
      "min": [
        0.272196501493454,
        0.4904618561267853
      ],
      "type": "VEC2"
    },
    {
      "bufferView": 0,
      "byteOffset": 41628,
      "componentType": 5125,
      "count": 1209,
      "type": "SCALAR"
    },
    {
      "bufferView": 2,
      "byteOffset": 181248,
      "componentType": 5126,
      "count": 2627,
      "max": [
        2.5831096172332764,
        8.027183532714844,
        42.46052551269531
      ],
      "min": [
        -2.5831096172332764,
        0.12655894458293915,
        -35.80632781982422
      ],
      "type": "VEC3"
    },
    {
      "bufferView": 2,
      "byteOffset": 212772,
      "componentType": 5126,
      "count": 2627,
      "max": [
        0.9904382824897766,
        1.0,
        0.9998942613601685
      ],
      "min": [
        -1.0,
        -0.2205209732055664,
        -0.99043869972229
      ],
      "type": "VEC3"
    },
    {
      "bufferView": 1,
      "byteOffset": 60416,
      "componentType": 5126,
      "count": 2627,
      "max": [
        0.9354482293128967,
        0.39591550827026367
      ],
      "min": [
        0.5486193299293518,
        0.3464406728744507
      ],
      "type": "VEC2"
    },
    {
      "bufferView": 0,
      "byteOffset": 46464,
      "componentType": 5125,
      "count": 4074,
      "type": "SCALAR"
    },
    {
      "bufferView": 2,
      "byteOffset": 244296,
      "componentType": 5126,
      "count": 419,
      "max": [
        3.896665334701538,
        -0.09678807109594345,
        42.421688079833984
      ],
      "min": [
        -3.896665334701538,
        -7.684116363525391,
        -35.54887008666992
      ],
      "type": "VEC3"
    },
    {
      "bufferView": 2,
      "byteOffset": 249324,
      "componentType": 5126,
      "count": 419,
      "max": [
        0.31542062759399414,
        0.7647199034690857,
        0.493501752614975
      ],
      "min": [
        -0.31542062759399414,
        -1.0,
        -0.6579542756080627
      ],
      "type": "VEC3"
    },
    {
      "bufferView": 1,
      "byteOffset": 81432,
      "componentType": 5126,
      "count": 419,
      "max": [
        0.4481412172317505,
        0.41393396258354187
      ],
      "min": [
        0.06888880580663681,
        0.3279302716255188
      ],
      "type": "VEC2"
    },
    {
      "bufferView": 0,
      "byteOffset": 62760,
      "componentType": 5125,
      "count": 678,
      "type": "SCALAR"
    },
    {
      "bufferView": 2,
      "byteOffset": 254352,
      "componentType": 5126,
      "count": 336,
      "max": [
        4.105173587799072,
        6.39341402053833,
        8.752710342407227
      ],
      "min": [
        -4.105173587799072,
        2.7261481285095215,
        -8.060778617858887
      ],
      "type": "VEC3"
    },
    {
      "bufferView": 2,
      "byteOffset": 258384,
      "componentType": 5126,
      "count": 336,
      "max": [
        0.9995654821395874,
        0.9992998838424683,
        0.996077835559845
      ],
      "min": [
        -0.9995654821395874,
        -0.9365682005882263,
        -0.9985191822052002
      ],
      "type": "VEC3"
    },
    {
      "bufferView": 1,
      "byteOffset": 84784,
      "componentType": 5126,
      "count": 336,
      "max": [
        0.0,
        0.0
      ],
      "min": [
        0.0,
        0.0
      ],
      "type": "VEC2"
    },
    {
      "bufferView": 0,
      "byteOffset": 65472,
      "componentType": 5125,
      "count": 504,
      "type": "SCALAR"
    },
    {
      "bufferView": 2,
      "byteOffset": 262416,
      "componentType": 5126,
      "count": 24,
      "max": [
        3.6880404949188232,
        6.05487585067749,
        6.774532794952393
      ],
      "min": [
        -3.6880404949188232,
        3.546393871307373,
        -6.720256805419922
      ],
      "type": "VEC3"
    },
    {
      "bufferView": 2,
      "byteOffset": 262704,
      "componentType": 5126,
      "count": 24,
      "max": [
        0.9423145055770874,
        0.9876765608787537,
        0.15648479759693146
      ],
      "min": [
        -0.9423145055770874,
        0.3216213285923004,
        -0.12489064037799835
      ],
      "type": "VEC3"
    },
    {
      "bufferView": 1,
      "byteOffset": 87472,
      "componentType": 5126,
      "count": 24,
      "max": [
        0.0,
        0.0
      ],
      "min": [
        0.0,
        0.0
      ],
      "type": "VEC2"
    },
    {
      "bufferView": 0,
      "byteOffset": 67488,
      "componentType": 5125,
      "count": 36,
      "type": "SCALAR"
    },
    {
      "bufferView": 2,
      "byteOffset": 262992,
      "componentType": 5126,
      "count": 16168,
      "max": [
        37.39196014404297,
        12.858107566833496,
        17.72659683227539
      ],
      "min": [
        -37.39196014404297,
        0.46894434094429016,
        -42.463138580322266
      ],
      "type": "VEC3"
    },
    {
      "bufferView": 2,
      "byteOffset": 457008,
      "componentType": 5126,
      "count": 16168,
      "max": [
        1.0,
        1.0,
        1.0
      ],
      "min": [
        -1.0,
        -1.0,
        -1.0
      ],
      "type": "VEC3"
    },
    {
      "bufferView": 1,
      "byteOffset": 87664,
      "componentType": 5126,
      "count": 16168,
      "max": [
        0.9677413105964661,
        0.7048934698104858
      ],
      "min": [
        0.6808096766471863,
        0.039407990872859955
      ],
      "type": "VEC2"
    },
    {
      "bufferView": 0,
      "byteOffset": 67632,
      "componentType": 5125,
      "count": 24528,
      "type": "SCALAR"
    },
    {
      "bufferView": 2,
      "byteOffset": 651024,
      "componentType": 5126,
      "count": 16184,
      "max": [
        37.39196014404297,
        4.859771728515625,
        17.72659683227539
      ],
      "min": [
        -37.39196014404297,
        -12.858107566833496,
        -42.463138580322266
      ],
      "type": "VEC3"
    },
    {
      "bufferView": 2,
      "byteOffset": 845232,
      "componentType": 5126,
      "count": 16184,
      "max": [
        1.0,
        1.0,
        1.0
      ],
      "min": [
        -1.0,
        -1.0,
        -1.0
      ],
      "type": "VEC3"
    },
    {
      "bufferView": 1,
      "byteOffset": 217008,
      "componentType": 5126,
      "count": 16184,
      "max": [
        0.3320198357105255,
        0.7093467712402344
      ],
      "min": [
        0.030029011890292168,
        0.041801244020462036
      ],
      "type": "VEC2"
    },
    {
      "bufferView": 0,
      "byteOffset": 165744,
      "componentType": 5125,
      "count": 24552,
      "type": "SCALAR"
    }
  ],
  "asset": {
    "extras": {
      "author": "PapaX007 (https://sketchfab.com/PapaX007)",
      "license": "CC-BY-4.0 (http://creativecommons.org/licenses/by/4.0/)",
      "source": "https://sketchfab.com/3d-models/x-wing-140f38941a8843e3bdb892d8fa74adbd",
      "title": "X- Wing"
    },
    "generator": "Sketchfab-14.84.0",
    "version": "2.0"
  },
  "bufferViews": [
    {
      "buffer": 0,
      "byteLength": 263952,
      "name": "floatBufferViews",
      "target": 34963
    },
    {
      "buffer": 0,
      "byteLength": 346480,
      "byteOffset": 263952,
      "byteStride": 8,
      "name": "floatBufferViews",
      "target": 34962
    },
    {
      "buffer": 0,
      "byteLength": 1039440,
      "byteOffset": 610432,
      "byteStride": 12,
      "name": "floatBufferViews",
      "target": 34962
    }
  ],
  "buffers": [
    {
      "byteLength": 1649872,
      "uri": "scene.bin"
    }
  ],
  "extensionsUsed": [
    "KHR_materials_specular"
  ],
  "images": [
    {
      "uri": "textures/Material_baseColor.jpeg"
    }
  ],
  "materials": [
    {
      "doubleSided": true,
      "name": "Material",
      "pbrMetallicRoughness": {
        "baseColorTexture": {
          "index": 0
        },
        "metallicFactor": 0.0,
        "roughnessFactor": 0.5
      }
    },
    {
      "doubleSided": true,
      "name": "Material.001",
      "pbrMetallicRoughness": {
        "baseColorTexture": {
          "index": 0
        },
        "metallicFactor": 0.0,
        "roughnessFactor": 0.5
      }
    },
    {
      "doubleSided": true,
      "name": "Material.002",
      "pbrMetallicRoughness": {
        "baseColorTexture": {
          "index": 0
        },
        "metallicFactor": 0.0,
        "roughnessFactor": 0.5
      }
    },
    {
      "doubleSided": true,
      "name": "Material.003",
      "pbrMetallicRoughness": {
        "baseColorTexture": {
          "index": 0
        },
        "metallicFactor": 0.0,
        "roughnessFactor": 0.5
      }
    },
    {
      "doubleSided": true,
      "name": "Material.004",
      "pbrMetallicRoughness": {
        "baseColorFactor": [
          0.061168677160403105,
          0.061168677160403105,
          0.061168677160403105,
          1.0
        ],
        "metallicFactor": 0.0,
        "roughnessFactor": 0.5
      }
    },
    {
      "doubleSided": true,
      "extensions": {
        "KHR_materials_specular": {
          "specularColorFactor": [
            1.0,
            1.0,
            1.0
          ],
          "specularFactor": 0.027685976906980946
        }
      },
      "name": "Material.005",
      "pbrMetallicRoughness": {
        "baseColorFactor": [
          0.0030822762267459346,
          0.0030822762267459346,
          0.0030822762267459346,
          1.0
        ],
        "metallicFactor": 0.7212925562608193,
        "roughnessFactor": 0.09180087079683155
      }
    },
    {
      "doubleSided": true,
      "name": "Material.006",
      "pbrMetallicRoughness": {
        "baseColorTexture": {
          "index": 0
        },
        "metallicFactor": 0.0,
        "roughnessFactor": 0.5
      }
    },
    {
      "doubleSided": true,
      "name": "Material.007",
      "pbrMetallicRoughness": {
        "baseColorTexture": {
          "index": 0
        },
        "metallicFactor": 0.0,
        "roughnessFactor": 0.5
      }
    }
  ],
  "meshes": [
    {
      "name": "Object_0",
      "primitives": [
        {
          "attributes": {
            "NORMAL": 1,
            "POSITION": 0,
            "TEXCOORD_0": 2
          },
          "indices": 3,
          "material": 0,
          "mode": 4
        }
      ]
    },
    {
      "name": "Object_1",
      "primitives": [
        {
          "attributes": {
            "NORMAL": 5,
            "POSITION": 4,
            "TEXCOORD_0": 6
          },
          "indices": 7,
          "material": 1,
          "mode": 4
        }
      ]
    },
    {
      "name": "Object_2",
      "primitives": [
        {
          "attributes": {
            "NORMAL": 9,
            "POSITION": 8,
            "TEXCOORD_0": 10
          },
          "indices": 11,
          "material": 2,
          "mode": 4
        }
      ]
    },
    {
      "name": "Object_3",
      "primitives": [
        {
          "attributes": {
            "NORMAL": 13,
            "POSITION": 12,
            "TEXCOORD_0": 14
          },
          "indices": 15,
          "material": 3,
          "mode": 4
        }
      ]
    },
    {
      "name": "Object_4",
      "primitives": [
        {
          "attributes": {
            "NORMAL": 17,
            "POSITION": 16,
            "TEXCOORD_0": 18
          },
          "indices": 19,
          "material": 4,
          "mode": 4
        }
      ]
    },
    {
      "name": "Object_5",
      "primitives": [
        {
          "attributes": {
            "NORMAL": 21,
            "POSITION": 20,
            "TEXCOORD_0": 22
          },
          "indices": 23,
          "material": 5,
          "mode": 4
        }
      ]
    },
    {
      "name": "Object_6",
      "primitives": [
        {
          "attributes": {
            "NORMAL": 25,
            "POSITION": 24,
            "TEXCOORD_0": 26
          },
          "indices": 27,
          "material": 6,
          "mode": 4
        }
      ]
    },
    {
      "name": "Object_7",
      "primitives": [
        {
          "attributes": {
            "NORMAL": 29,
            "POSITION": 28,
            "TEXCOORD_0": 30
          },
          "indices": 31,
          "material": 7,
          "mode": 4
        }
      ]
    }
  ],
  "nodes": [
    {
      "children": [
        1
      ],
      "matrix": [
        1.0,
        0.0,
        0.0,
        0.0,
        0.0,
        2.220446049250313e-16,
        -1.0,
        0.0,
        0.0,
        1.0,
        2.220446049250313e-16,
        0.0,
        0.0,
        0.0,
        0.0,
        1.0
      ],
      "name": "Sketchfab_model"
    },
    {
      "children": [
        2
      ],
      "name": "root"
    },
    {
      "children": [
        3,
        8,
        11
      ],
      "matrix": [
        1.0,
        0.0,
        0.0,
        0.0,
        0.0,
        2.220446049250313e-16,
        1.0,
        0.0,
        0.0,
        -1.0,
        2.220446049250313e-16,
        0.0,
        0.0,
        0.0,
        0.0,
        1.0
      ],
      "name": "GLTF_SceneRootNode"
    },
    {
      "children": [
        4,
        5,
        6,
        7
      ],
      "name": "Rumpf_0"
    },
    {
      "mesh": 0,
      "name": "Object_4"
    },
    {
      "mesh": 1,
      "name": "Object_5"
    },
    {
      "mesh": 2,
      "name": "Object_6"
    },
    {
      "mesh": 3,
      "name": "Object_7"
    },
    {
      "children": [
        9,
        10
      ],
      "name": "Kabin_1"
    },
    {
      "mesh": 4,
      "name": "Object_9"
    },
    {
      "mesh": 5,
      "name": "Object_10"
    },
    {
      "children": [
        12,
        13
      ],
      "name": "Wings_2"
    },
    {
      "mesh": 6,
      "name": "Object_12"
    },
    {
      "mesh": 7,
      "name": "Object_13"
    }
  ],
  "samplers": [
    {
      "magFilter": 9729,
      "minFilter": 9987,
      "wrapS": 10497,
      "wrapT": 10497
    }
  ],
  "scene": 0,
  "scenes": [
    {
      "name": "Sketchfab_Scene",
      "nodes": [
        0
      ]
    }
  ],
  "textures": [
    {
      "sampler": 0,
      "source": 0
    }
  ]
}
